<svg width="3123" height="1558" xmlns="http://www.w3.org/2000/svg" xmlns:xlink="http://www.w3.org/1999/xlink" xml:space="preserve" overflow="hidden"><defs><clipPath id="clip0"><rect x="1585" y="51" width="3123" height="1558"/></clipPath></defs><g clip-path="url(#clip0)" transform="translate(-1585 -51)"><rect x="1586" y="51.9999" width="3120" height="1555" fill="#FFFFFF"/><g><path d="M1748.5 1221.54 4624.5 1221.54M1748.5 941.531 4624.5 941.531M1748.5 661.522 4624.5 661.522M1748.5 381.513 4624.5 381.513M1748.5 101.5 4624.5 101.5" stroke="#D9D9D9" stroke-width="3.4375" stroke-linejoin="round" stroke-miterlimit="10" fill="none"/></g><g><path d="M2036.57 101.5 2036.57 1501.5M2323.58 101.5 2323.58 1501.5M2611.59 101.5 2611.59 1501.5M2898.6 101.5 2898.6 1501.5M3186.6 101.5 3186.6 1501.5M3473.61 101.5 3473.61 1501.5M3761.62 101.5 3761.62 1501.5M4048.63 101.5 4048.63 1501.5M4336.64 101.5 4336.64 1501.5M4624.5 101.5 4624.5 1501.5" stroke="#D9D9D9" stroke-width="3.4375" stroke-linejoin="round" stroke-miterlimit="10" fill="none"/></g><g><path d="M0 0 0.000360892 1400" stroke="#BFBFBF" stroke-width="3.4375" stroke-linejoin="round" stroke-miterlimit="10" fill="none" fill-rule="evenodd" transform="matrix(1 0 0 -1 1748.5 1501.5)"/></g><g><path d="M1748.5 1501.5 4624.5 1501.5" stroke="#BFBFBF" stroke-width="3.4375" stroke-linejoin="round" stroke-miterlimit="10" fill="none" fill-rule="evenodd"/></g><g><path d="M1892.5 1499.5 2036.57 1497.55 2179.57 1493.55 2323.58 1488.55 2467.58 1483.55 2611.59 1474.55 2754.59 1462.55 2898.6 1444.55 3042.6 1415.55 3186.6 1382.55 3330.61 1349.54 3473.61 1295.54 3617.62 1232.54 3761.62 1160.54 3905.63 1075.54 4048.63 965.532 4192.64 832.527 4336.64 686.523 4480.65 519.517 4624.5 330.5" stroke="#156082" stroke-width="6.875" stroke-linecap="round" stroke-linejoin="round" stroke-miterlimit="10" fill="none"/></g><g><path d="M1903.91 1499.06C1903.91 1505.14 1898.98 1510.06 1892.91 1510.06 1886.83 1510.06 1881.91 1505.14 1881.91 1499.06 1881.91 1492.99 1886.83 1488.06 1892.91 1488.06 1898.98 1488.06 1903.91 1492.99 1903.91 1499.06Z" stroke="#156082" stroke-width="3.4375" stroke-linejoin="round" stroke-miterlimit="10" fill="#156082"/><path d="M2047.91 1497.06C2047.91 1503.14 2042.98 1508.06 2036.91 1508.06 2030.83 1508.06 2025.91 1503.14 2025.91 1497.06 2025.91 1490.99 2030.83 1486.06 2036.91 1486.06 2042.98 1486.06 2047.91 1490.99 2047.91 1497.06Z" stroke="#156082" stroke-width="3.4375" stroke-linejoin="round" stroke-miterlimit="10" fill="#156082"/><path d="M2190.91 1493.06C2190.91 1499.14 2185.98 1504.06 2179.91 1504.06 2173.83 1504.06 2168.91 1499.14 2168.91 1493.06 2168.91 1486.99 2173.83 1482.06 2179.91 1482.06 2185.98 1482.06 2190.91 1486.99 2190.91 1493.06Z" stroke="#156082" stroke-width="3.4375" stroke-linejoin="round" stroke-miterlimit="10" fill="#156082"/><path d="M2334.91 1488.06C2334.91 1494.14 2329.98 1499.06 2323.91 1499.06 2317.83 1499.06 2312.91 1494.14 2312.91 1488.06 2312.91 1481.99 2317.83 1477.06 2323.91 1477.06 2329.98 1477.06 2334.91 1481.99 2334.91 1488.06Z" stroke="#156082" stroke-width="3.4375" stroke-linejoin="round" stroke-miterlimit="10" fill="#156082"/><path d="M2478.91 1483.06C2478.91 1489.14 2473.98 1494.06 2467.91 1494.06 2461.83 1494.06 2456.91 1489.14 2456.91 1483.06 2456.91 1476.99 2461.83 1472.06 2467.91 1472.06 2473.98 1472.06 2478.91 1476.99 2478.91 1483.06Z" stroke="#156082" stroke-width="3.4375" stroke-linejoin="round" stroke-miterlimit="10" fill="#156082"/><path d="M2622.91 1474.06C2622.91 1480.14 2617.98 1485.06 2611.91 1485.06 2605.83 1485.06 2600.91 1480.14 2600.91 1474.06 2600.91 1467.99 2605.83 1463.06 2611.91 1463.06 2617.98 1463.06 2622.91 1467.99 2622.91 1474.06Z" stroke="#156082" stroke-width="3.4375" stroke-linejoin="round" stroke-miterlimit="10" fill="#156082"/><path d="M2766.91 1462.06C2766.91 1468.14 2761.98 1473.06 2755.91 1473.06 2749.83 1473.06 2744.91 1468.14 2744.91 1462.06 2744.91 1455.99 2749.83 1451.06 2755.91 1451.06 2761.98 1451.06 2766.91 1455.99 2766.91 1462.06Z" stroke="#156082" stroke-width="3.4375" stroke-linejoin="round" stroke-miterlimit="10" fill="#156082"/><path d="M2909.91 1444.06C2909.91 1450.14 2904.98 1455.06 2898.91 1455.06 2892.83 1455.06 2887.91 1450.14 2887.91 1444.06 2887.91 1437.99 2892.83 1433.06 2898.91 1433.06 2904.98 1433.06 2909.91 1437.99 2909.91 1444.06Z" stroke="#156082" stroke-width="3.4375" stroke-linejoin="round" stroke-miterlimit="10" fill="#156082"/><path d="M3053.91 1415.06C3053.91 1421.14 3048.98 1426.06 3042.91 1426.06 3036.83 1426.06 3031.91 1421.14 3031.91 1415.06 3031.91 1408.99 3036.83 1404.06 3042.91 1404.06 3048.98 1404.06 3053.91 1408.99 3053.91 1415.06Z" stroke="#156082" stroke-width="3.4375" stroke-linejoin="round" stroke-miterlimit="10" fill="#156082"/><path d="M3197.91 1382.06C3197.91 1388.14 3192.98 1393.06 3186.91 1393.06 3180.83 1393.06 3175.91 1388.14 3175.91 1382.06 3175.91 1375.99 3180.83 1371.06 3186.91 1371.06 3192.98 1371.06 3197.91 1375.99 3197.91 1382.06Z" stroke="#156082" stroke-width="3.4375" stroke-linejoin="round" stroke-miterlimit="10" fill="#156082"/><path d="M3341.91 1349.06C3341.91 1355.14 3336.98 1360.06 3330.91 1360.06 3324.83 1360.06 3319.91 1355.14 3319.91 1349.06 3319.91 1342.99 3324.83 1338.06 3330.91 1338.06 3336.98 1338.06 3341.91 1342.99 3341.91 1349.06Z" stroke="#156082" stroke-width="3.4375" stroke-linejoin="round" stroke-miterlimit="10" fill="#156082"/><path d="M3484.91 1295.06C3484.91 1301.14 3479.98 1306.06 3473.91 1306.06 3467.83 1306.06 3462.91 1301.14 3462.91 1295.06 3462.91 1288.99 3467.83 1284.06 3473.91 1284.06 3479.98 1284.06 3484.91 1288.99 3484.91 1295.06Z" stroke="#156082" stroke-width="3.4375" stroke-linejoin="round" stroke-miterlimit="10" fill="#156082"/><path d="M3628.91 1232.06C3628.91 1238.14 3623.98 1243.06 3617.91 1243.06 3611.83 1243.06 3606.91 1238.14 3606.91 1232.06 3606.91 1225.99 3611.83 1221.06 3617.91 1221.06 3623.98 1221.06 3628.91 1225.99 3628.91 1232.06Z" stroke="#156082" stroke-width="3.4375" stroke-linejoin="round" stroke-miterlimit="10" fill="#156082"/><path d="M3772.91 1160.06C3772.91 1166.14 3767.98 1171.06 3761.91 1171.06 3755.83 1171.06 3750.91 1166.14 3750.91 1160.06 3750.91 1153.99 3755.83 1149.06 3761.91 1149.06 3767.98 1149.06 3772.91 1153.99 3772.91 1160.06Z" stroke="#156082" stroke-width="3.4375" stroke-linejoin="round" stroke-miterlimit="10" fill="#156082"/><path d="M3916.91 1076.06C3916.91 1082.14 3911.98 1087.06 3905.91 1087.06 3899.83 1087.06 3894.91 1082.14 3894.91 1076.06 3894.91 1069.99 3899.83 1065.06 3905.91 1065.06 3911.98 1065.06 3916.91 1069.99 3916.91 1076.06Z" stroke="#156082" stroke-width="3.4375" stroke-linejoin="round" stroke-miterlimit="10" fill="#156082"/><path d="M4060.91 965.062C4060.91 971.137 4055.98 976.062 4049.91 976.062 4043.83 976.062 4038.91 971.137 4038.91 965.062 4038.91 958.987 4043.83 954.063 4049.91 954.063 4055.98 954.063 4060.91 958.987 4060.91 965.062Z" stroke="#156082" stroke-width="3.4375" stroke-linejoin="round" stroke-miterlimit="10" fill="#156082"/><path d="M4203.91 832.062C4203.91 838.137 4198.98 843.062 4192.91 843.062 4186.83 843.062 4181.91 838.137 4181.91 832.062 4181.91 825.987 4186.83 821.063 4192.91 821.063 4198.98 821.063 4203.91 825.987 4203.91 832.062Z" stroke="#156082" stroke-width="3.4375" stroke-linejoin="round" stroke-miterlimit="10" fill="#156082"/><path d="M4347.91 686.062C4347.91 692.137 4342.98 697.062 4336.91 697.062 4330.83 697.062 4325.91 692.137 4325.91 686.062 4325.91 679.987 4330.83 675.063 4336.91 675.063 4342.98 675.063 4347.91 679.987 4347.91 686.062Z" stroke="#156082" stroke-width="3.4375" stroke-linejoin="round" stroke-miterlimit="10" fill="#156082"/><path d="M4491.91 519.062C4491.91 525.137 4486.98 530.062 4480.91 530.062 4474.83 530.062 4469.91 525.137 4469.91 519.062 4469.91 512.987 4474.83 508.062 4480.91 508.062 4486.98 508.062 4491.91 512.987 4491.91 519.062Z" stroke="#156082" stroke-width="3.4375" stroke-linejoin="round" stroke-miterlimit="10" fill="#156082"/><path d="M4635.91 330.062C4635.91 336.137 4630.98 341.062 4624.91 341.062 4618.83 341.062 4613.91 336.137 4613.91 330.062 4613.91 323.987 4618.83 319.063 4624.91 319.063 4630.98 319.063 4635.91 323.987 4635.91 330.062Z" stroke="#156082" stroke-width="3.4375" stroke-linejoin="round" stroke-miterlimit="10" fill="#156082"/></g><g><path d="M1892.5 1500.5 2036.57 1500.55 2179.57 1499.55 2323.58 1497.55 2467.58 1492.55 2611.59 1486.55 2754.59 1477.55 2898.6 1463.55 3042.6 1444.55 3186.6 1420.55 3330.61 1389.55 3473.61 1349.54 3617.62 1298.54 3761.62 1237.54 3905.63 1162.54 4048.63 1072.54 4192.64 965.532 4336.64 840.528 4480.65 697.523 4624.5 530.5" stroke="#E97132" stroke-width="6.875" stroke-linecap="round" stroke-linejoin="round" stroke-miterlimit="10" fill="none"/></g><g><path d="M1903.91 1500.06C1903.91 1506.14 1898.98 1511.06 1892.91 1511.06 1886.83 1511.06 1881.91 1506.14 1881.91 1500.06 1881.91 1493.99 1886.83 1489.06 1892.91 1489.06 1898.98 1489.06 1903.91 1493.99 1903.91 1500.06Z" stroke="#E97132" stroke-width="3.4375" stroke-linejoin="round" stroke-miterlimit="10" fill="#E97132"/><path d="M2047.91 1500.06C2047.91 1506.14 2042.98 1511.06 2036.91 1511.06 2030.83 1511.06 2025.91 1506.14 2025.91 1500.06 2025.91 1493.99 2030.83 1489.06 2036.91 1489.06 2042.98 1489.06 2047.91 1493.99 2047.91 1500.06Z" stroke="#E97132" stroke-width="3.4375" stroke-linejoin="round" stroke-miterlimit="10" fill="#E97132"/><path d="M2190.91 1499.06C2190.91 1505.14 2185.98 1510.06 2179.91 1510.06 2173.83 1510.06 2168.91 1505.14 2168.91 1499.06 2168.91 1492.99 2173.83 1488.06 2179.91 1488.06 2185.98 1488.06 2190.91 1492.99 2190.91 1499.06Z" stroke="#E97132" stroke-width="3.4375" stroke-linejoin="round" stroke-miterlimit="10" fill="#E97132"/><path d="M2334.91 1497.06C2334.91 1503.14 2329.98 1508.06 2323.91 1508.06 2317.83 1508.06 2312.91 1503.14 2312.91 1497.06 2312.91 1490.99 2317.83 1486.06 2323.91 1486.06 2329.98 1486.06 2334.91 1490.99 2334.91 1497.06Z" stroke="#E97132" stroke-width="3.4375" stroke-linejoin="round" stroke-miterlimit="10" fill="#E97132"/><path d="M2478.91 1493.06C2478.91 1499.14 2473.98 1504.06 2467.91 1504.06 2461.83 1504.06 2456.91 1499.14 2456.91 1493.06 2456.91 1486.99 2461.83 1482.06 2467.91 1482.06 2473.98 1482.06 2478.91 1486.99 2478.91 1493.06Z" stroke="#E97132" stroke-width="3.4375" stroke-linejoin="round" stroke-miterlimit="10" fill="#E97132"/><path d="M2622.91 1486.06C2622.91 1492.14 2617.98 1497.06 2611.91 1497.06 2605.83 1497.06 2600.91 1492.14 2600.91 1486.06 2600.91 1479.99 2605.83 1475.06 2611.91 1475.06 2617.98 1475.06 2622.91 1479.99 2622.91 1486.06Z" stroke="#E97132" stroke-width="3.4375" stroke-linejoin="round" stroke-miterlimit="10" fill="#E97132"/><path d="M2766.91 1477.06C2766.91 1483.14 2761.98 1488.06 2755.91 1488.06 2749.83 1488.06 2744.91 1483.14 2744.91 1477.06 2744.91 1470.99 2749.83 1466.06 2755.91 1466.06 2761.98 1466.06 2766.91 1470.99 2766.91 1477.06Z" stroke="#E97132" stroke-width="3.4375" stroke-linejoin="round" stroke-miterlimit="10" fill="#E97132"/><path d="M2909.91 1463.06C2909.91 1469.14 2904.98 1474.06 2898.91 1474.06 2892.83 1474.06 2887.91 1469.14 2887.91 1463.06 2887.91 1456.99 2892.83 1452.06 2898.91 1452.06 2904.98 1452.06 2909.91 1456.99 2909.91 1463.06Z" stroke="#E97132" stroke-width="3.4375" stroke-linejoin="round" stroke-miterlimit="10" fill="#E97132"/><path d="M3053.91 1444.06C3053.91 1450.14 3048.98 1455.06 3042.91 1455.06 3036.83 1455.06 3031.91 1450.14 3031.91 1444.06 3031.91 1437.99 3036.83 1433.06 3042.91 1433.06 3048.98 1433.06 3053.91 1437.99 3053.91 1444.06Z" stroke="#E97132" stroke-width="3.4375" stroke-linejoin="round" stroke-miterlimit="10" fill="#E97132"/><path d="M3197.91 1420.06C3197.91 1426.14 3192.98 1431.06 3186.91 1431.06 3180.83 1431.06 3175.91 1426.14 3175.91 1420.06 3175.91 1413.99 3180.83 1409.06 3186.91 1409.06 3192.98 1409.06 3197.91 1413.99 3197.91 1420.06Z" stroke="#E97132" stroke-width="3.4375" stroke-linejoin="round" stroke-miterlimit="10" fill="#E97132"/><path d="M3341.91 1389.06C3341.91 1395.14 3336.98 1400.06 3330.91 1400.06 3324.83 1400.06 3319.91 1395.14 3319.91 1389.06 3319.91 1382.99 3324.83 1378.06 3330.91 1378.06 3336.98 1378.06 3341.91 1382.99 3341.91 1389.06Z" stroke="#E97132" stroke-width="3.4375" stroke-linejoin="round" stroke-miterlimit="10" fill="#E97132"/><path d="M3484.91 1349.06C3484.91 1355.14 3479.98 1360.06 3473.91 1360.06 3467.83 1360.06 3462.91 1355.14 3462.91 1349.06 3462.91 1342.99 3467.83 1338.06 3473.91 1338.06 3479.98 1338.06 3484.91 1342.99 3484.91 1349.06Z" stroke="#E97132" stroke-width="3.4375" stroke-linejoin="round" stroke-miterlimit="10" fill="#E97132"/><path d="M3628.91 1298.06C3628.91 1304.14 3623.98 1309.06 3617.91 1309.06 3611.83 1309.06 3606.91 1304.14 3606.91 1298.06 3606.91 1291.99 3611.83 1287.06 3617.91 1287.06 3623.98 1287.06 3628.91 1291.99 3628.91 1298.06Z" stroke="#E97132" stroke-width="3.4375" stroke-linejoin="round" stroke-miterlimit="10" fill="#E97132"/><path d="M3772.91 1237.06C3772.91 1243.14 3767.98 1248.06 3761.91 1248.06 3755.83 1248.06 3750.91 1243.14 3750.91 1237.06 3750.91 1230.99 3755.83 1226.06 3761.91 1226.06 3767.98 1226.06 3772.91 1230.99 3772.91 1237.06Z" stroke="#E97132" stroke-width="3.4375" stroke-linejoin="round" stroke-miterlimit="10" fill="#E97132"/><path d="M3916.91 1162.06C3916.91 1168.14 3911.98 1173.06 3905.91 1173.06 3899.83 1173.06 3894.91 1168.14 3894.91 1162.06 3894.91 1155.99 3899.83 1151.06 3905.91 1151.06 3911.98 1151.06 3916.91 1155.99 3916.91 1162.06Z" stroke="#E97132" stroke-width="3.4375" stroke-linejoin="round" stroke-miterlimit="10" fill="#E97132"/><path d="M4060.91 1072.06C4060.91 1078.14 4055.98 1083.06 4049.91 1083.06 4043.83 1083.06 4038.91 1078.14 4038.91 1072.06 4038.91 1065.99 4043.83 1061.06 4049.91 1061.06 4055.98 1061.06 4060.91 1065.99 4060.91 1072.06Z" stroke="#E97132" stroke-width="3.4375" stroke-linejoin="round" stroke-miterlimit="10" fill="#E97132"/><path d="M4203.91 965.062C4203.91 971.137 4198.98 976.062 4192.91 976.062 4186.83 976.062 4181.91 971.137 4181.91 965.062 4181.91 958.987 4186.83 954.063 4192.91 954.063 4198.98 954.063 4203.91 958.987 4203.91 965.062Z" stroke="#E97132" stroke-width="3.4375" stroke-linejoin="round" stroke-miterlimit="10" fill="#E97132"/><path d="M4347.91 840.062C4347.91 846.137 4342.98 851.062 4336.91 851.062 4330.83 851.062 4325.91 846.137 4325.91 840.062 4325.91 833.987 4330.83 829.063 4336.91 829.063 4342.98 829.063 4347.91 833.987 4347.91 840.062Z" stroke="#E97132" stroke-width="3.4375" stroke-linejoin="round" stroke-miterlimit="10" fill="#E97132"/><path d="M4491.91 697.062C4491.91 703.137 4486.98 708.062 4480.91 708.062 4474.83 708.062 4469.91 703.137 4469.91 697.062 4469.91 690.987 4474.83 686.063 4480.91 686.063 4486.98 686.063 4491.91 690.987 4491.91 697.062Z" stroke="#E97132" stroke-width="3.4375" stroke-linejoin="round" stroke-miterlimit="10" fill="#E97132"/><path d="M4635.91 530.062C4635.91 536.137 4630.98 541.062 4624.91 541.062 4618.83 541.062 4613.91 536.137 4613.91 530.062 4613.91 523.987 4618.83 519.062 4624.91 519.062 4630.98 519.062 4635.91 523.987 4635.91 530.062Z" stroke="#E97132" stroke-width="3.4375" stroke-linejoin="round" stroke-miterlimit="10" fill="#E97132"/></g><g><path d="M1892.5 1488.5 2036.57 1486.55 2179.57 1480.55 2323.58 1466.55 2467.58 1455.55 2611.59 1457.55 2754.59 1462.55 2898.6 1458.55 3042.6 1453.55 3186.6 1445.55 3330.61 1434.55 3473.61 1425.55 3617.62 1413.55 3761.62 1401.55 3905.63 1385.55 4048.63 1367.55 4192.64 1349.54 4336.64 1325.54 4480.65 1302.54 4624.5 1268.5" stroke="#196B24" stroke-width="6.875" stroke-linecap="round" stroke-linejoin="round" stroke-miterlimit="10" stroke-dasharray="0 13.75" fill="none"/></g><g><path d="M1903.91 1488.06C1903.91 1494.14 1898.98 1499.06 1892.91 1499.06 1886.83 1499.06 1881.91 1494.14 1881.91 1488.06 1881.91 1481.99 1886.83 1477.06 1892.91 1477.06 1898.98 1477.06 1903.91 1481.99 1903.91 1488.06Z" stroke="#196B24" stroke-width="3.4375" stroke-linejoin="round" stroke-miterlimit="10" fill="#196B24"/><path d="M2047.91 1486.06C2047.91 1492.14 2042.98 1497.06 2036.91 1497.06 2030.83 1497.06 2025.91 1492.14 2025.91 1486.06 2025.91 1479.99 2030.83 1475.06 2036.91 1475.06 2042.98 1475.06 2047.91 1479.99 2047.91 1486.06Z" stroke="#196B24" stroke-width="3.4375" stroke-linejoin="round" stroke-miterlimit="10" fill="#196B24"/><path d="M2190.91 1480.06C2190.91 1486.14 2185.98 1491.06 2179.91 1491.06 2173.83 1491.06 2168.91 1486.14 2168.91 1480.06 2168.91 1473.99 2173.83 1469.06 2179.91 1469.06 2185.98 1469.06 2190.91 1473.99 2190.91 1480.06Z" stroke="#196B24" stroke-width="3.4375" stroke-linejoin="round" stroke-miterlimit="10" fill="#196B24"/><path d="M2334.91 1466.06C2334.91 1472.14 2329.98 1477.06 2323.91 1477.06 2317.83 1477.06 2312.91 1472.14 2312.91 1466.06 2312.91 1459.99 2317.83 1455.06 2323.91 1455.06 2329.98 1455.06 2334.91 1459.99 2334.91 1466.06Z" stroke="#196B24" stroke-width="3.4375" stroke-linejoin="round" stroke-miterlimit="10" fill="#196B24"/><path d="M2478.91 1455.06C2478.91 1461.14 2473.98 1466.06 2467.91 1466.06 2461.83 1466.06 2456.91 1461.14 2456.91 1455.06 2456.91 1448.99 2461.83 1444.06 2467.91 1444.06 2473.98 1444.06 2478.91 1448.99 2478.91 1455.06Z" stroke="#196B24" stroke-width="3.4375" stroke-linejoin="round" stroke-miterlimit="10" fill="#196B24"/><path d="M2622.91 1457.06C2622.91 1463.14 2617.98 1468.06 2611.91 1468.06 2605.83 1468.06 2600.91 1463.14 2600.91 1457.06 2600.91 1450.99 2605.83 1446.06 2611.91 1446.06 2617.98 1446.06 2622.91 1450.99 2622.91 1457.06Z" stroke="#196B24" stroke-width="3.4375" stroke-linejoin="round" stroke-miterlimit="10" fill="#196B24"/><path d="M2766.91 1463.06C2766.91 1469.14 2761.98 1474.06 2755.91 1474.06 2749.83 1474.06 2744.91 1469.14 2744.91 1463.06 2744.91 1456.99 2749.83 1452.06 2755.91 1452.06 2761.98 1452.06 2766.91 1456.99 2766.91 1463.06Z" stroke="#196B24" stroke-width="3.4375" stroke-linejoin="round" stroke-miterlimit="10" fill="#196B24"/><path d="M2909.91 1458.06C2909.91 1464.14 2904.98 1469.06 2898.91 1469.06 2892.83 1469.06 2887.91 1464.14 2887.91 1458.06 2887.91 1451.99 2892.83 1447.06 2898.91 1447.06 2904.98 1447.06 2909.91 1451.99 2909.91 1458.06Z" stroke="#196B24" stroke-width="3.4375" stroke-linejoin="round" stroke-miterlimit="10" fill="#196B24"/><path d="M3053.91 1453.06C3053.91 1459.14 3048.98 1464.06 3042.91 1464.06 3036.83 1464.06 3031.91 1459.14 3031.91 1453.06 3031.91 1446.99 3036.83 1442.06 3042.91 1442.06 3048.98 1442.06 3053.91 1446.99 3053.91 1453.06Z" stroke="#196B24" stroke-width="3.4375" stroke-linejoin="round" stroke-miterlimit="10" fill="#196B24"/><path d="M3197.91 1445.06C3197.91 1451.14 3192.98 1456.06 3186.91 1456.06 3180.83 1456.06 3175.91 1451.14 3175.91 1445.06 3175.91 1438.99 3180.83 1434.06 3186.91 1434.06 3192.98 1434.06 3197.91 1438.99 3197.91 1445.06Z" stroke="#196B24" stroke-width="3.4375" stroke-linejoin="round" stroke-miterlimit="10" fill="#196B24"/><path d="M3341.91 1434.06C3341.91 1440.14 3336.98 1445.06 3330.91 1445.06 3324.83 1445.06 3319.91 1440.14 3319.91 1434.06 3319.91 1427.99 3324.83 1423.06 3330.91 1423.06 3336.98 1423.06 3341.91 1427.99 3341.91 1434.06Z" stroke="#196B24" stroke-width="3.4375" stroke-linejoin="round" stroke-miterlimit="10" fill="#196B24"/><path d="M3484.91 1425.06C3484.91 1431.14 3479.98 1436.06 3473.91 1436.06 3467.83 1436.06 3462.91 1431.14 3462.91 1425.06 3462.91 1418.99 3467.83 1414.06 3473.91 1414.06 3479.98 1414.06 3484.91 1418.99 3484.91 1425.06Z" stroke="#196B24" stroke-width="3.4375" stroke-linejoin="round" stroke-miterlimit="10" fill="#196B24"/><path d="M3628.91 1413.06C3628.91 1419.14 3623.98 1424.06 3617.91 1424.06 3611.83 1424.06 3606.91 1419.14 3606.91 1413.06 3606.91 1406.99 3611.83 1402.06 3617.91 1402.06 3623.98 1402.06 3628.91 1406.99 3628.91 1413.06Z" stroke="#196B24" stroke-width="3.4375" stroke-linejoin="round" stroke-miterlimit="10" fill="#196B24"/><path d="M3772.91 1401.06C3772.91 1407.14 3767.98 1412.06 3761.91 1412.06 3755.83 1412.06 3750.91 1407.14 3750.91 1401.06 3750.91 1394.99 3755.83 1390.06 3761.91 1390.06 3767.98 1390.06 3772.91 1394.99 3772.91 1401.06Z" stroke="#196B24" stroke-width="3.4375" stroke-linejoin="round" stroke-miterlimit="10" fill="#196B24"/><path d="M3916.91 1385.06C3916.91 1391.14 3911.98 1396.06 3905.91 1396.06 3899.83 1396.06 3894.91 1391.14 3894.91 1385.06 3894.91 1378.99 3899.83 1374.06 3905.91 1374.06 3911.98 1374.06 3916.91 1378.99 3916.91 1385.06Z" stroke="#196B24" stroke-width="3.4375" stroke-linejoin="round" stroke-miterlimit="10" fill="#196B24"/><path d="M4060.91 1367.06C4060.91 1373.14 4055.98 1378.06 4049.91 1378.06 4043.83 1378.06 4038.91 1373.14 4038.91 1367.06 4038.91 1360.99 4043.83 1356.06 4049.91 1356.06 4055.98 1356.06 4060.91 1360.99 4060.91 1367.06Z" stroke="#196B24" stroke-width="3.4375" stroke-linejoin="round" stroke-miterlimit="10" fill="#196B24"/><path d="M4203.91 1349.06C4203.91 1355.14 4198.98 1360.06 4192.91 1360.06 4186.83 1360.06 4181.91 1355.14 4181.91 1349.06 4181.91 1342.99 4186.83 1338.06 4192.91 1338.06 4198.98 1338.06 4203.91 1342.99 4203.91 1349.06Z" stroke="#196B24" stroke-width="3.4375" stroke-linejoin="round" stroke-miterlimit="10" fill="#196B24"/><path d="M4347.91 1325.06C4347.91 1331.14 4342.98 1336.06 4336.91 1336.06 4330.83 1336.06 4325.91 1331.14 4325.91 1325.06 4325.91 1318.99 4330.83 1314.06 4336.91 1314.06 4342.98 1314.06 4347.91 1318.99 4347.91 1325.06Z" stroke="#196B24" stroke-width="3.4375" stroke-linejoin="round" stroke-miterlimit="10" fill="#196B24"/><path d="M4491.91 1302.06C4491.91 1308.14 4486.98 1313.06 4480.91 1313.06 4474.83 1313.06 4469.91 1308.14 4469.91 1302.06 4469.91 1295.99 4474.83 1291.06 4480.91 1291.06 4486.98 1291.06 4491.91 1295.99 4491.91 1302.06Z" stroke="#196B24" stroke-width="3.4375" stroke-linejoin="round" stroke-miterlimit="10" fill="#196B24"/><path d="M4635.91 1268.06C4635.91 1274.14 4630.98 1279.06 4624.91 1279.06 4618.83 1279.06 4613.91 1274.14 4613.91 1268.06 4613.91 1261.99 4618.83 1257.06 4624.91 1257.06 4630.98 1257.06 4635.91 1261.99 4635.91 1268.06Z" stroke="#196B24" stroke-width="3.4375" stroke-linejoin="round" stroke-miterlimit="10" fill="#196B24"/></g><g><path d="M1892.5 1501.5 2036.57 1500.55 2179.57 1500.55 2323.58 1500.55 2467.58 1499.55 2611.59 1499.55 2754.59 1498.55 2898.6 1497.55 3042.6 1495.55 3186.6 1493.55 3330.61 1491.55 3473.61 1488.55 3617.62 1485.55 3761.62 1480.55 3905.63 1475.55 4048.63 1469.55 4192.64 1462.55 4336.64 1453.55 4480.65 1444.55 4624.5 1432.5" stroke="#0F9ED5" stroke-width="6.875" stroke-linecap="round" stroke-linejoin="round" stroke-miterlimit="10" fill="none"/></g><g><path d="M1903.91 1501.06C1903.91 1507.14 1898.98 1512.06 1892.91 1512.06 1886.83 1512.06 1881.91 1507.14 1881.91 1501.06 1881.91 1494.99 1886.83 1490.06 1892.91 1490.06 1898.98 1490.06 1903.91 1494.99 1903.91 1501.06Z" stroke="#0F9ED5" stroke-width="3.4375" stroke-linejoin="round" stroke-miterlimit="10" fill="#0F9ED5"/><path d="M2047.91 1500.06C2047.91 1506.14 2042.98 1511.06 2036.91 1511.06 2030.83 1511.06 2025.91 1506.14 2025.91 1500.06 2025.91 1493.99 2030.83 1489.06 2036.91 1489.06 2042.98 1489.06 2047.91 1493.99 2047.91 1500.06Z" stroke="#0F9ED5" stroke-width="3.4375" stroke-linejoin="round" stroke-miterlimit="10" fill="#0F9ED5"/><path d="M2190.91 1500.06C2190.91 1506.14 2185.98 1511.06 2179.91 1511.06 2173.83 1511.06 2168.91 1506.14 2168.91 1500.06 2168.91 1493.99 2173.83 1489.06 2179.91 1489.06 2185.98 1489.06 2190.91 1493.99 2190.91 1500.06Z" stroke="#0F9ED5" stroke-width="3.4375" stroke-linejoin="round" stroke-miterlimit="10" fill="#0F9ED5"/><path d="M2334.91 1500.06C2334.91 1506.14 2329.98 1511.06 2323.91 1511.06 2317.83 1511.06 2312.91 1506.14 2312.91 1500.06 2312.91 1493.99 2317.83 1489.06 2323.91 1489.06 2329.98 1489.06 2334.91 1493.99 2334.91 1500.06Z" stroke="#0F9ED5" stroke-width="3.4375" stroke-linejoin="round" stroke-miterlimit="10" fill="#0F9ED5"/><path d="M2478.91 1499.06C2478.91 1505.14 2473.98 1510.06 2467.91 1510.06 2461.83 1510.06 2456.91 1505.14 2456.91 1499.06 2456.91 1492.99 2461.83 1488.06 2467.91 1488.06 2473.98 1488.06 2478.91 1492.99 2478.91 1499.06Z" stroke="#0F9ED5" stroke-width="3.4375" stroke-linejoin="round" stroke-miterlimit="10" fill="#0F9ED5"/><path d="M2622.91 1499.06C2622.91 1505.14 2617.98 1510.06 2611.91 1510.06 2605.83 1510.06 2600.91 1505.14 2600.91 1499.06 2600.91 1492.99 2605.83 1488.06 2611.91 1488.06 2617.98 1488.06 2622.91 1492.99 2622.91 1499.06Z" stroke="#0F9ED5" stroke-width="3.4375" stroke-linejoin="round" stroke-miterlimit="10" fill="#0F9ED5"/><path d="M2766.91 1498.06C2766.91 1504.14 2761.98 1509.06 2755.91 1509.06 2749.83 1509.06 2744.91 1504.14 2744.91 1498.06 2744.91 1491.99 2749.83 1487.06 2755.91 1487.06 2761.98 1487.06 2766.91 1491.99 2766.91 1498.06Z" stroke="#0F9ED5" stroke-width="3.4375" stroke-linejoin="round" stroke-miterlimit="10" fill="#0F9ED5"/><path d="M2909.91 1497.06C2909.91 1503.14 2904.98 1508.06 2898.91 1508.06 2892.83 1508.06 2887.91 1503.14 2887.91 1497.06 2887.91 1490.99 2892.83 1486.06 2898.91 1486.06 2904.98 1486.06 2909.91 1490.99 2909.91 1497.06Z" stroke="#0F9ED5" stroke-width="3.4375" stroke-linejoin="round" stroke-miterlimit="10" fill="#0F9ED5"/><path d="M3053.91 1495.06C3053.91 1501.14 3048.98 1506.06 3042.91 1506.06 3036.83 1506.06 3031.91 1501.14 3031.91 1495.06 3031.91 1488.99 3036.83 1484.06 3042.91 1484.06 3048.98 1484.06 3053.91 1488.99 3053.91 1495.06Z" stroke="#0F9ED5" stroke-width="3.4375" stroke-linejoin="round" stroke-miterlimit="10" fill="#0F9ED5"/><path d="M3197.91 1493.06C3197.91 1499.14 3192.98 1504.06 3186.91 1504.06 3180.83 1504.06 3175.91 1499.14 3175.91 1493.06 3175.91 1486.99 3180.83 1482.06 3186.91 1482.06 3192.98 1482.06 3197.91 1486.99 3197.91 1493.06Z" stroke="#0F9ED5" stroke-width="3.4375" stroke-linejoin="round" stroke-miterlimit="10" fill="#0F9ED5"/><path d="M3341.91 1491.06C3341.91 1497.14 3336.98 1502.06 3330.91 1502.06 3324.83 1502.06 3319.91 1497.14 3319.91 1491.06 3319.91 1484.99 3324.83 1480.06 3330.91 1480.06 3336.98 1480.06 3341.91 1484.99 3341.91 1491.06Z" stroke="#0F9ED5" stroke-width="3.4375" stroke-linejoin="round" stroke-miterlimit="10" fill="#0F9ED5"/><path d="M3484.91 1488.06C3484.91 1494.14 3479.98 1499.06 3473.91 1499.06 3467.83 1499.06 3462.91 1494.14 3462.91 1488.06 3462.91 1481.99 3467.83 1477.06 3473.91 1477.06 3479.98 1477.06 3484.91 1481.99 3484.91 1488.06Z" stroke="#0F9ED5" stroke-width="3.4375" stroke-linejoin="round" stroke-miterlimit="10" fill="#0F9ED5"/><path d="M3628.91 1485.06C3628.91 1491.14 3623.98 1496.06 3617.91 1496.06 3611.83 1496.06 3606.91 1491.14 3606.91 1485.06 3606.91 1478.99 3611.83 1474.06 3617.91 1474.06 3623.98 1474.06 3628.91 1478.99 3628.91 1485.06Z" stroke="#0F9ED5" stroke-width="3.4375" stroke-linejoin="round" stroke-miterlimit="10" fill="#0F9ED5"/><path d="M3772.91 1480.06C3772.91 1486.14 3767.98 1491.06 3761.91 1491.06 3755.83 1491.06 3750.91 1486.14 3750.91 1480.06 3750.91 1473.99 3755.83 1469.06 3761.91 1469.06 3767.98 1469.06 3772.91 1473.99 3772.91 1480.06Z" stroke="#0F9ED5" stroke-width="3.4375" stroke-linejoin="round" stroke-miterlimit="10" fill="#0F9ED5"/><path d="M3916.91 1475.06C3916.91 1481.14 3911.98 1486.06 3905.91 1486.06 3899.83 1486.06 3894.91 1481.14 3894.91 1475.06 3894.91 1468.99 3899.83 1464.06 3905.91 1464.06 3911.98 1464.06 3916.91 1468.99 3916.91 1475.06Z" stroke="#0F9ED5" stroke-width="3.4375" stroke-linejoin="round" stroke-miterlimit="10" fill="#0F9ED5"/><path d="M4060.91 1469.06C4060.91 1475.14 4055.98 1480.06 4049.91 1480.06 4043.83 1480.06 4038.91 1475.14 4038.91 1469.06 4038.91 1462.99 4043.83 1458.06 4049.91 1458.06 4055.98 1458.06 4060.91 1462.99 4060.91 1469.06Z" stroke="#0F9ED5" stroke-width="3.4375" stroke-linejoin="round" stroke-miterlimit="10" fill="#0F9ED5"/><path d="M4203.91 1462.06C4203.91 1468.14 4198.98 1473.06 4192.91 1473.06 4186.83 1473.06 4181.91 1468.14 4181.91 1462.06 4181.91 1455.99 4186.83 1451.06 4192.91 1451.06 4198.98 1451.06 4203.91 1455.99 4203.91 1462.06Z" stroke="#0F9ED5" stroke-width="3.4375" stroke-linejoin="round" stroke-miterlimit="10" fill="#0F9ED5"/><path d="M4347.91 1453.06C4347.91 1459.14 4342.98 1464.06 4336.91 1464.06 4330.83 1464.06 4325.91 1459.14 4325.91 1453.06 4325.91 1446.99 4330.83 1442.06 4336.91 1442.06 4342.98 1442.06 4347.91 1446.99 4347.91 1453.06Z" stroke="#0F9ED5" stroke-width="3.4375" stroke-linejoin="round" stroke-miterlimit="10" fill="#0F9ED5"/><path d="M4491.91 1444.06C4491.91 1450.14 4486.98 1455.06 4480.91 1455.06 4474.83 1455.06 4469.91 1450.14 4469.91 1444.06 4469.91 1437.99 4474.83 1433.06 4480.91 1433.06 4486.98 1433.06 4491.91 1437.99 4491.91 1444.06Z" stroke="#0F9ED5" stroke-width="3.4375" stroke-linejoin="round" stroke-miterlimit="10" fill="#0F9ED5"/><path d="M4635.91 1432.06C4635.91 1438.14 4630.98 1443.06 4624.91 1443.06 4618.83 1443.06 4613.91 1438.14 4613.91 1432.06 4613.91 1425.99 4618.83 1421.06 4624.91 1421.06 4630.98 1421.06 4635.91 1425.99 4635.91 1432.06Z" stroke="#0F9ED5" stroke-width="3.4375" stroke-linejoin="round" stroke-miterlimit="10" fill="#0F9ED5"/></g><g><text fill="#595959" font-family="Aptos Narrow,Aptos Narrow_MSFontService,sans-serif" font-weight="400" font-stretch="semi-condensed" font-size="41" transform="matrix(1 0 0 1 1689.62 1513)">0</text></g><g><text fill="#595959" font-family="Aptos Narrow,Aptos Narrow_MSFontService,sans-serif" font-weight="400" font-stretch="semi-condensed" font-size="41" transform="matrix(1 0 0 1 1647.82 1233)">500</text></g><g><text fill="#595959" font-family="Aptos Narrow,Aptos Narrow_MSFontService,sans-serif" font-weight="400" font-stretch="semi-condensed" font-size="41" transform="matrix(1 0 0 1 1616.2 953)">1,000</text></g><g><text fill="#595959" font-family="Aptos Narrow,Aptos Narrow_MSFontService,sans-serif" font-weight="400" font-stretch="semi-condensed" font-size="41" transform="matrix(1 0 0 1 1616.2 673)">1,500</text></g><g><text fill="#595959" font-family="Aptos Narrow,Aptos Narrow_MSFontService,sans-serif" font-weight="400" font-stretch="semi-condensed" font-size="41" transform="matrix(1 0 0 1 1616.2 393)">2,000</text></g><g><text fill="#595959" font-family="Aptos Narrow,Aptos Narrow_MSFontService,sans-serif" font-weight="400" font-stretch="semi-condensed" font-size="41" transform="matrix(1 0 0 1 1616.2 114)">2,500</text></g><g><text fill="#595959" font-family="Aptos Narrow,Aptos Narrow_MSFontService,sans-serif" font-weight="400" font-stretch="semi-condensed" font-size="41" transform="matrix(1 0 0 1 1738.16 1566)">0</text></g><g><text fill="#595959" font-family="Aptos Narrow,Aptos Narrow_MSFontService,sans-serif" font-weight="400" font-stretch="semi-condensed" font-size="41" transform="matrix(1 0 0 1 2015.26 1566)">20</text></g><g><text fill="#595959" font-family="Aptos Narrow,Aptos Narrow_MSFontService,sans-serif" font-weight="400" font-stretch="semi-condensed" font-size="41" transform="matrix(1 0 0 1 2302.82 1566)">40</text></g><g><text fill="#595959" font-family="Aptos Narrow,Aptos Narrow_MSFontService,sans-serif" font-weight="400" font-stretch="semi-condensed" font-size="41" transform="matrix(1 0 0 1 2590.38 1566)">60</text></g><g><text fill="#595959" font-family="Aptos Narrow,Aptos Narrow_MSFontService,sans-serif" font-weight="400" font-stretch="semi-condensed" font-size="41" transform="matrix(1 0 0 1 2877.93 1566)">80</text></g><g><text fill="#595959" font-family="Aptos Narrow,Aptos Narrow_MSFontService,sans-serif" font-weight="400" font-stretch="semi-condensed" font-size="41" transform="matrix(1 0 0 1 3155.04 1566)">100</text></g><g><text fill="#595959" font-family="Aptos Narrow,Aptos Narrow_MSFontService,sans-serif" font-weight="400" font-stretch="semi-condensed" font-size="41" transform="matrix(1 0 0 1 3442.6 1566)">120</text></g><g><text fill="#595959" font-family="Aptos Narrow,Aptos Narrow_MSFontService,sans-serif" font-weight="400" font-stretch="semi-condensed" font-size="41" transform="matrix(1 0 0 1 3730.15 1566)">140</text></g><g><text fill="#595959" font-family="Aptos Narrow,Aptos Narrow_MSFontService,sans-serif" font-weight="400" font-stretch="semi-condensed" font-size="41" transform="matrix(1 0 0 1 4017.71 1566)">160</text></g><g><text fill="#595959" font-family="Aptos Narrow,Aptos Narrow_MSFontService,sans-serif" font-weight="400" font-stretch="semi-condensed" font-size="41" transform="matrix(1 0 0 1 4305.26 1566)">180</text></g><g><text fill="#595959" font-family="Aptos Narrow,Aptos Narrow_MSFontService,sans-serif" font-weight="400" font-stretch="semi-condensed" font-size="41" transform="matrix(1 0 0 1 4592.82 1566)">200</text></g><rect x="1586.5" y="52.5001" width="3120" height="1555" stroke="#D9D9D9" stroke-width="3.4375" stroke-linejoin="round" stroke-miterlimit="10" fill="none"/><g><g><text font-family="Aptos Narrow,Aptos Narrow_MSFontService,sans-serif" font-weight="400" font-stretch="semi-condensed" font-size="64" transform="matrix(1 0 0 1 4182.35 474)">Earley</text></g></g><g><g><text font-family="Aptos Narrow,Aptos Narrow_MSFontService,sans-serif" font-weight="400" font-stretch="semi-condensed" font-size="64" transform="matrix(1 0 0 1 4351.38 474)">Java</text></g></g><g><text font-family="Aptos Narrow,Aptos Narrow_MSFontService,sans-serif" font-weight="400" font-stretch="semi-condensed" font-size="64" transform="matrix(1 0 0 1 4337.67 927)">Earley</text></g><g><text font-family="Aptos Narrow,Aptos Narrow_MSFontService,sans-serif" font-weight="400" font-stretch="semi-condensed" font-size="64" transform="matrix(1 0 0 1 4506.71 927)">C++</text></g><g><text font-family="Aptos Narrow,Aptos Narrow_MSFontService,sans-serif" font-weight="400" font-stretch="semi-condensed" font-size="64" transform="matrix(1 0 0 1 4170.56 1431)">Earley</text></g><g><text font-family="Aptos Narrow,Aptos Narrow_MSFontService,sans-serif" font-weight="400" font-stretch="semi-condensed" font-size="64" transform="matrix(1 0 0 1 4339.59 1431)">Table C++</text></g><g><text font-family="Aptos Narrow,Aptos Narrow_MSFontService,sans-serif" font-weight="400" font-stretch="semi-condensed" font-size="64" transform="matrix(1 0 0 1 4105.83 1255)">Earley</text></g><g><text font-family="Aptos Narrow,Aptos Narrow_MSFontService,sans-serif" font-weight="400" font-stretch="semi-condensed" font-size="64" transform="matrix(1 0 0 1 4274.86 1255)">Table Java</text></g></g></svg>